<?xml version="1.0" encoding="UTF-8" standalone="no"?>
<!-- Created with Inkscape (http://www.inkscape.org/) -->

<svg
   version="1.1"
   id="svg1"
   width="360"
   height="360"
   viewBox="0 0 360 360"
   sodipodi:docname="heart-grouped-4.svg"
   inkscape:version="1.4 (86a8ad7, 2024-10-11)"
   xmlns:inkscape="http://www.inkscape.org/namespaces/inkscape"
   xmlns:sodipodi="http://sodipodi.sourceforge.net/DTD/sodipodi-0.dtd"
   xmlns="http://www.w3.org/2000/svg"
   xmlns:svg="http://www.w3.org/2000/svg">
  <defs
     id="defs1" />
  <sodipodi:namedview
     id="namedview1"
     pagecolor="#ffffff"
     bordercolor="#666666"
     borderopacity="1.0"
     inkscape:showpageshadow="2"
     inkscape:pageopacity="0.0"
     inkscape:pagecheckerboard="0"
     inkscape:deskcolor="#d1d1d1"
     showgrid="false"
     inkscape:zoom="1.7638889"
     inkscape:cx="251.14961"
     inkscape:cy="178.29921"
     inkscape:window-width="1600"
     inkscape:window-height="837"
     inkscape:window-x="-8"
     inkscape:window-y="-8"
     inkscape:window-maximized="1"
     inkscape:current-layer="layer1" />
  <g
     inkscape:groupmode="layer"
     id="layer1"
     inkscape:label="Image 1"
     style="fill:#1a1a1a">
    <g
       id="g7">
      <path
         style="display:inline;fill:none;stroke:#000000;stroke-width:1px;stroke-linecap:butt;stroke-linejoin:miter;stroke-opacity:1"
         d="M 180.39727,311.53118 V 179.44141 h 143.51484 c -31.98703,58.04737 -85.50177,95.08153 -143.51484,132.08977 z"
         id="path4"
         sodipodi:nodetypes="cccc" />
      <path
         style="fill:none;stroke:#000000;stroke-width:1px;stroke-linecap:butt;stroke-linejoin:miter;stroke-opacity:1"
         d="m 179.88976,312.41339 v 10 C 258.01443,275.26263 295.12555,238.7428 333.16179,179.32163 h -10 C 286.0193,243.73894 233.085,280.06463 179.88976,312.41339 Z"
         id="path6"
         sodipodi:nodetypes="ccccc" />
    </g>
    <g
       id="g8">
      <path
         style="fill:none;stroke:#000000;stroke-width:1px;stroke-linecap:butt;stroke-linejoin:miter;stroke-opacity:1"
         d="M 179.39487,311.54371 V 179.43911 H 34.598555 c 31.987026,58.04737 85.501765,95.08153 144.796315,132.1046 z"
         id="path4-5"
         sodipodi:nodetypes="cccc" />
      <path
         style="fill:none;stroke:#000000;stroke-width:1px;stroke-linecap:butt;stroke-linejoin:miter;stroke-opacity:1"
         d="m 178.8887,312.42069 v 10 C 100.76404,275.26993 63.652918,238.7501 25.616677,179.32893 h 10 c 37.142491,64.41731 90.076783,100.743 143.272023,133.09176 z"
         id="path6-6"
         sodipodi:nodetypes="ccccc" />
    </g>
    <g
       id="g9">
      <path
         style="fill:none;stroke:#000000;stroke-width:1px;stroke-linecap:butt;stroke-linejoin:miter;stroke-opacity:1"
         d="M 180.38722,178.46838 V 95.085433 c 0,0 44.11559,-59.816118 107.95568,-27.607798 64.57484,32.579015 36.77639,111.535015 36.96224,110.990745 z"
         id="path5-1"
         sodipodi:nodetypes="ccscc" />
      <path
         style="fill:none;stroke:#000000;stroke-width:1px;stroke-linecap:butt;stroke-linejoin:miter;stroke-opacity:1"
         d="M 179.88585,94.868632 V 84.846646 c -9.79257,-12.189664 88.79668,-78.478817 143.86219,-16.673418 48.52871,54.468512 9.92125,110.551182 9.92125,110.551182 h -8.7874 C 359.60034,51.671134 228.55121,28.423346 179.88585,94.868632 Z"
         id="path7"
         sodipodi:nodetypes="ccsccc" />
    </g>
    <g
       id="g10">
      <path
         style="fill:none;stroke:#000000;stroke-width:1px;stroke-linecap:butt;stroke-linejoin:miter;stroke-opacity:1"
         d="M 179.39464,178.44389 V 95.060637 c 0,0 -44.11559,-59.816118 -107.955689,-27.607744 C 6.864107,100.03185 34.662557,178.98816 34.476709,178.44389 Z"
         id="path5"
         sodipodi:nodetypes="ccscc" />
      <path
         style="fill:none;stroke:#000000;stroke-width:1px;stroke-linecap:butt;stroke-linejoin:miter;stroke-opacity:1"
         d="M 179.27136,95.164542 V 85.142556 C 189.06393,72.952892 90.47467,6.66374 35.40916,68.469138 -13.119547,122.93765 25.487913,179.02032 25.487913,179.02032 H 34.27531 C -0.4431362,51.96704 130.606,28.71926 179.27136,95.164542 Z"
         id="path7-3"
         sodipodi:nodetypes="ccsccc" />
    </g>
  </g>
</svg>
